<svg xmlns="http://www.w3.org/2000/svg" xmlns:xlink="http://www.w3.org/1999/xlink" width="1080" zoomAndPan="magnify" viewBox="0 0 810 809.999993" height="1080" preserveAspectRatio="xMidYMid meet" version="1.0"><defs><clipPath id="5f9f598819"><path d="M 405 0 C 181.324219 0 0 181.324219 0 405 C 0 628.675781 181.324219 810 405 810 C 628.675781 810 810 628.675781 810 405 C 810 181.324219 628.675781 0 405 0 Z M 405 0 " clip-rule="nonzero"/></clipPath><clipPath id="fd415cd47d"><path d="M 0 0 L 810 0 L 810 810 L 0 810 Z M 0 0 " clip-rule="nonzero"/></clipPath><clipPath id="ada0fe33e6"><path d="M 405 0 C 181.324219 0 0 181.324219 0 405 C 0 628.675781 181.324219 810 405 810 C 628.675781 810 810 628.675781 810 405 C 810 181.324219 628.675781 0 405 0 Z M 405 0 " clip-rule="nonzero"/></clipPath><clipPath id="6e32b882e1"><rect x="0" width="810" y="0" height="810"/></clipPath></defs><g clip-path="url(#5f9f598819)"><g transform="matrix(1, 0, 0, 1, 0, 0.000000000000039746)"><g clip-path="url(#6e32b882e1)"><g clip-path="url(#fd415cd47d)"><g clip-path="url(#ada0fe33e6)"><rect x="-178.2" width="1166.4" fill="#ffffff" height="1166.39999" y="-178.199998" fill-opacity="1"/></g></g></g></g><path stroke-linecap="butt" transform="matrix(0.75, 0, 0, 0.75, 0.0000035, 0.00002)" fill="none" stroke-linejoin="miter" d="M 540.000023 -0.0000266667 C 241.765632 -0.0000266667 -0.00000466667 241.76561 -0.00000466667 540 C -0.00000466667 838.234391 241.765632 1080.000028 540.000023 1080.000028 C 838.234413 1080.000028 1080.00005 838.234391 1080.00005 540 C 1080.00005 241.76561 838.234413 -0.0000266667 540.000023 -0.0000266667 Z M 540.000023 -0.0000266667 " stroke="#eb9420" stroke-width="160" stroke-opacity="1" stroke-miterlimit="4"/></g><path stroke-linecap="round" transform="matrix(0, 0.75, -0.75, 0, 423.749622, 92.374506)" fill="none" stroke-linejoin="miter" d="M 25.00066 24.999497 L 101.031914 24.999497 " stroke="#8b8b8b" stroke-width="50" stroke-opacity="1" stroke-miterlimit="4"/><path stroke-linecap="round" transform="matrix(0.33795, -0.669544, 0.669544, 0.33795, 356.192095, 410.784335)" fill="none" stroke-linejoin="miter" d="M 50.001559 49.99858 L 382.001811 49.997945 " stroke="#7fbf38" stroke-width="100" stroke-opacity="1" stroke-miterlimit="4"/><path stroke-linecap="round" transform="matrix(-0.478011, -0.577932, 0.577932, -0.478011, 500.38493, 568.869255)" fill="none" stroke-linejoin="miter" d="M 50.000324 50.00336 L 257.234744 49.999445 " stroke="#7fbf38" stroke-width="100" stroke-opacity="1" stroke-miterlimit="4"/><path stroke-linecap="round" transform="matrix(-0.75, 0, 0, -0.75, 717.625095, 423.749999)" fill="none" stroke-linejoin="miter" d="M 25.000128 24.999999 L 101.031382 24.999999 " stroke="#8b8b8b" stroke-width="50" stroke-opacity="1" stroke-miterlimit="4"/><path stroke-linecap="round" transform="matrix(-0.75, 0, 0, -0.75, 186.897548, 423.749999)" fill="none" stroke-linejoin="miter" d="M 24.998816 24.999999 L 101.03007 24.999999 " stroke="#8b8b8b" stroke-width="50" stroke-opacity="1" stroke-miterlimit="4"/><path stroke-linecap="round" transform="matrix(0, 0.75, -0.75, 0, 423.749622, 623.102029)" fill="none" stroke-linejoin="miter" d="M 24.99938 24.999497 L 101.030634 24.999497 " stroke="#8b8b8b" stroke-width="50" stroke-opacity="1" stroke-miterlimit="4"/><path stroke-linecap="round" transform="matrix(0, 0.75, -0.75, 0, 423.749622, 92.374506)" fill="none" stroke-linejoin="miter" d="M 25.00066 24.999497 L 101.031914 24.999497 " stroke="#8b8b8b" stroke-width="50" stroke-opacity="1" stroke-miterlimit="4"/><path stroke-linecap="round" transform="matrix(-0.75, 0, 0, -0.75, 717.625095, 423.749999)" fill="none" stroke-linejoin="miter" d="M 25.000128 24.999999 L 101.031382 24.999999 " stroke="#8b8b8b" stroke-width="50" stroke-opacity="1" stroke-miterlimit="4"/><path stroke-linecap="round" transform="matrix(-0.75, 0, 0, -0.75, 186.897548, 423.749999)" fill="none" stroke-linejoin="miter" d="M 24.998816 24.999999 L 101.03007 24.999999 " stroke="#8b8b8b" stroke-width="50" stroke-opacity="1" stroke-miterlimit="4"/><path stroke-linecap="round" transform="matrix(0, 0.75, -0.75, 0, 423.749622, 623.102029)" fill="none" stroke-linejoin="miter" d="M 24.99938 24.999497 L 101.030634 24.999497 " stroke="#8b8b8b" stroke-width="50" stroke-opacity="1" stroke-miterlimit="4"/></svg>