<svg xmlns="http://www.w3.org/2000/svg" xmlns:xlink="http://www.w3.org/1999/xlink" width="1080" zoomAndPan="magnify" viewBox="0 0 810 809.999993" height="1080" preserveAspectRatio="xMidYMid meet" version="1.0"><defs><clipPath id="153f286f2c"><path d="M 405 0 C 181.324219 0 0 181.324219 0 405 C 0 628.675781 181.324219 810 405 810 C 628.675781 810 810 628.675781 810 405 C 810 181.324219 628.675781 0 405 0 Z M 405 0 " clip-rule="nonzero"/></clipPath><clipPath id="d3c31c51e8"><path d="M 0 0 L 810 0 L 810 810 L 0 810 Z M 0 0 " clip-rule="nonzero"/></clipPath><clipPath id="36e65277aa"><path d="M 405 0 C 181.324219 0 0 181.324219 0 405 C 0 628.675781 181.324219 810 405 810 C 628.675781 810 810 628.675781 810 405 C 810 181.324219 628.675781 0 405 0 Z M 405 0 " clip-rule="nonzero"/></clipPath><clipPath id="8d46e010e9"><rect x="0" width="810" y="0" height="810"/></clipPath><clipPath id="bd3f4b14fa"><path d="M 330.324219 575.902344 L 479.675781 575.902344 L 479.675781 725.25 L 330.324219 725.25 Z M 330.324219 575.902344 " clip-rule="nonzero"/></clipPath><clipPath id="79db765e67"><path d="M 405 575.902344 C 363.757812 575.902344 330.324219 609.332031 330.324219 650.574219 C 330.324219 691.816406 363.757812 725.25 405 725.25 C 446.242188 725.25 479.675781 691.816406 479.675781 650.574219 C 479.675781 609.332031 446.242188 575.902344 405 575.902344 Z M 405 575.902344 " clip-rule="nonzero"/></clipPath><clipPath id="b18271f22b"><path d="M 0.324219 0.902344 L 149.675781 0.902344 L 149.675781 150.25 L 0.324219 150.25 Z M 0.324219 0.902344 " clip-rule="nonzero"/></clipPath><clipPath id="4a1e488fde"><path d="M 75 0.902344 C 33.757812 0.902344 0.324219 34.332031 0.324219 75.574219 C 0.324219 116.816406 33.757812 150.25 75 150.25 C 116.242188 150.25 149.675781 116.816406 149.675781 75.574219 C 149.675781 34.332031 116.242188 0.902344 75 0.902344 Z M 75 0.902344 " clip-rule="nonzero"/></clipPath><clipPath id="2bc7550bd6"><rect x="0" width="150" y="0" height="151"/></clipPath><clipPath id="8e63953e9e"><path d="M 292.042969 84.75 L 517.957031 84.75 L 517.957031 541.324219 L 292.042969 541.324219 Z M 292.042969 84.75 " clip-rule="nonzero"/></clipPath><clipPath id="80d3ca321c"><path d="M 405 541.175781 C 439.773438 541.175781 469.175781 515.429688 473.765625 480.957031 L 516.605469 159.09375 C 519.101562 140.328125 513.382812 121.398438 500.910156 107.160156 C 488.441406 92.917969 470.429688 84.75 451.5 84.75 L 358.5 84.75 C 339.570312 84.75 321.558594 92.917969 309.089844 107.160156 C 296.617188 121.398438 290.898438 140.328125 293.394531 159.09375 L 336.234375 480.957031 C 340.824219 515.429688 370.226562 541.175781 405 541.175781 Z M 405 541.175781 " clip-rule="nonzero"/></clipPath><clipPath id="a72f64e324"><path d="M 0.0429688 0.75 L 225.957031 0.75 L 225.957031 457.199219 L 0.0429688 457.199219 Z M 0.0429688 0.75 " clip-rule="nonzero"/></clipPath><clipPath id="8c701eb2b7"><path d="M 113 457.175781 C 147.773438 457.175781 177.175781 431.429688 181.765625 396.957031 L 224.605469 75.09375 C 227.101562 56.328125 221.382812 37.398438 208.910156 23.160156 C 196.441406 8.917969 178.429688 0.75 159.5 0.75 L 66.5 0.75 C 47.570312 0.75 29.558594 8.917969 17.089844 23.160156 C 4.617188 37.398438 -1.101562 56.328125 1.394531 75.09375 L 44.234375 396.957031 C 48.824219 431.429688 78.226562 457.175781 113 457.175781 Z M 113 457.175781 " clip-rule="nonzero"/></clipPath><clipPath id="5044841c5c"><rect x="0" width="226" y="0" height="458"/></clipPath></defs><g clip-path="url(#153f286f2c)"><g transform="matrix(1, 0, 0, 1, 0, 0.000000000000039746)"><g clip-path="url(#8d46e010e9)"><g clip-path="url(#d3c31c51e8)"><g clip-path="url(#36e65277aa)"><rect x="-178.2" width="1166.4" fill="#ffffff" height="1166.39999" y="-178.199998" fill-opacity="1"/></g></g></g></g><path stroke-linecap="butt" transform="matrix(0.75, 0, 0, 0.75, 0.0000035, 0.00002)" fill="none" stroke-linejoin="miter" d="M 540.000023 -0.0000266667 C 241.765632 -0.0000266667 -0.00000466667 241.76561 -0.00000466667 540.000001 C -0.00000466667 838.234391 241.765632 1080.000028 540.000023 1080.000028 C 838.234413 1080.000028 1080.00005 838.234391 1080.00005 540.000001 C 1080.00005 241.76561 838.234413 -0.0000266667 540.000023 -0.0000266667 Z M 540.000023 -0.0000266667 " stroke="#eb9420" stroke-width="160" stroke-opacity="1" stroke-miterlimit="4"/></g><g clip-path="url(#bd3f4b14fa)"><g clip-path="url(#79db765e67)"><g transform="matrix(1, 0, 0, 1, 330, 575)"><g clip-path="url(#2bc7550bd6)"><g clip-path="url(#b18271f22b)"><g clip-path="url(#4a1e488fde)"><path fill="#7fbf38" d="M 0.324219 0.902344 L 149.675781 0.902344 L 149.675781 150.25 L 0.324219 150.25 Z M 0.324219 0.902344 " fill-opacity="1" fill-rule="nonzero"/></g></g></g></g></g></g><g clip-path="url(#8e63953e9e)"><g clip-path="url(#80d3ca321c)"><g transform="matrix(1, 0, 0, 1, 292, 84)"><g clip-path="url(#5044841c5c)"><g clip-path="url(#a72f64e324)"><g clip-path="url(#8c701eb2b7)"><path fill="#7fbf38" d="M -8.5 0.75 L 234.5 0.75 L 234.5 457.324219 L -8.5 457.324219 Z M -8.5 0.75 " fill-opacity="1" fill-rule="nonzero"/></g></g></g></g></g></g></svg>