<svg xmlns="http://www.w3.org/2000/svg" xmlns:xlink="http://www.w3.org/1999/xlink" width="1080" zoomAndPan="magnify" viewBox="0 0 810 809.999993" height="1080" preserveAspectRatio="xMidYMid meet" version="1.0"><defs><clipPath id="37179aea91"><path d="M 405 0 C 181.324219 0 0 181.324219 0 405 C 0 628.675781 181.324219 810 405 810 C 628.675781 810 810 628.675781 810 405 C 810 181.324219 628.675781 0 405 0 Z M 405 0 " clip-rule="nonzero"/></clipPath><clipPath id="788ed6a87c"><path d="M 0 0 L 810 0 L 810 810 L 0 810 Z M 0 0 " clip-rule="nonzero"/></clipPath><clipPath id="2f091b17d8"><path d="M 405 0 C 181.324219 0 0 181.324219 0 405 C 0 628.675781 181.324219 810 405 810 C 628.675781 810 810 628.675781 810 405 C 810 181.324219 628.675781 0 405 0 Z M 405 0 " clip-rule="nonzero"/></clipPath><clipPath id="6cce6f9565"><rect x="0" width="810" y="0" height="810"/></clipPath><clipPath id="072f0bdf91"><path d="M 362.074219 600.628906 L 447.925781 600.628906 L 447.925781 686.480469 L 362.074219 686.480469 Z M 362.074219 600.628906 " clip-rule="nonzero"/></clipPath><clipPath id="07677f1d22"><path d="M 405 600.628906 C 381.292969 600.628906 362.074219 619.847656 362.074219 643.554688 C 362.074219 667.261719 381.292969 686.480469 405 686.480469 C 428.707031 686.480469 447.925781 667.261719 447.925781 643.554688 C 447.925781 619.847656 428.707031 600.628906 405 600.628906 Z M 405 600.628906 " clip-rule="nonzero"/></clipPath><clipPath id="a8244cdcba"><path d="M 0.0742188 0.628906 L 85.925781 0.628906 L 85.925781 86.480469 L 0.0742188 86.480469 Z M 0.0742188 0.628906 " clip-rule="nonzero"/></clipPath><clipPath id="83fb36ff96"><path d="M 43 0.628906 C 19.292969 0.628906 0.0742188 19.847656 0.0742188 43.554688 C 0.0742188 67.261719 19.292969 86.480469 43 86.480469 C 66.707031 86.480469 85.925781 67.261719 85.925781 43.554688 C 85.925781 19.847656 66.707031 0.628906 43 0.628906 Z M 43 0.628906 " clip-rule="nonzero"/></clipPath><clipPath id="3e65850719"><rect x="0" width="86" y="0" height="87"/></clipPath></defs><g clip-path="url(#37179aea91)"><g transform="matrix(1, 0, 0, 1, 0, 0.000000000000039746)"><g clip-path="url(#6cce6f9565)"><g clip-path="url(#788ed6a87c)"><g clip-path="url(#2f091b17d8)"><rect x="-178.2" width="1166.4" fill="#ffffff" height="1166.39999" y="-178.199998" fill-opacity="1"/></g></g></g></g><path stroke-linecap="butt" transform="matrix(0.75, 0, 0, 0.75, 0.0000035, 0.00002)" fill="none" stroke-linejoin="miter" d="M 540.000023 -0.0000266667 C 241.765632 -0.0000266667 -0.00000466667 241.76561 -0.00000466667 540.000001 C -0.00000466667 838.234391 241.765632 1080.000028 540.000023 1080.000028 C 838.234413 1080.000028 1080.00005 838.234391 1080.00005 540.000001 C 1080.00005 241.76561 838.234413 -0.0000266667 540.000023 -0.0000266667 Z M 540.000023 -0.0000266667 " stroke="#eb9420" stroke-width="160" stroke-opacity="1" stroke-miterlimit="4"/></g><g clip-path="url(#072f0bdf91)"><g clip-path="url(#07677f1d22)"><g transform="matrix(1, 0, 0, 1, 362, 600)"><g clip-path="url(#3e65850719)"><g clip-path="url(#a8244cdcba)"><g clip-path="url(#83fb36ff96)"><path fill="#7fbf38" d="M 0.0742188 0.628906 L 85.925781 0.628906 L 85.925781 86.480469 L 0.0742188 86.480469 Z M 0.0742188 0.628906 " fill-opacity="1" fill-rule="nonzero"/></g></g></g></g></g></g><path stroke-linecap="round" transform="matrix(0.75, 0, 0, 0.75, 267.827421, 124.294233)" fill="none" stroke-linejoin="miter" d="M 50.594691 187.32124 L 50.297816 187.32124 C 50.219691 187.32124 50.141566 187.28999 50.084274 187.237907 C 50.032191 187.180615 50.000941 187.107699 50.000941 187.024365 L 50.000941 118.659779 C 50.000941 80.74311 80.740526 49.998317 118.662403 49.998317 L 232.9072 49.998317 C 288.13637 49.998317 332.907205 94.769153 332.907205 149.998322 L 332.907205 263.914994 C 332.907205 306.581663 298.318662 341.164998 255.651993 341.164998 C 212.990532 341.164998 178.401989 375.753542 178.401989 418.42021 L 178.401989 532.774383 " stroke="#7fbf38" stroke-width="100" stroke-opacity="1" stroke-miterlimit="4"/></svg>