<svg xmlns="http://www.w3.org/2000/svg" xmlns:xlink="http://www.w3.org/1999/xlink" width="1080" zoomAndPan="magnify" viewBox="0 0 810 809.999993" height="1080" preserveAspectRatio="xMidYMid meet" version="1.0"><defs><clipPath id="00992b4a38"><path d="M 405 0 C 181.324219 0 0 181.324219 0 405 C 0 628.675781 181.324219 810 405 810 C 628.675781 810 810 628.675781 810 405 C 810 181.324219 628.675781 0 405 0 Z M 405 0 " clip-rule="nonzero"/></clipPath><clipPath id="af529eb0ca"><path d="M 0 0 L 810 0 L 810 810 L 0 810 Z M 0 0 " clip-rule="nonzero"/></clipPath><clipPath id="20b1b7b19d"><path d="M 405 0 C 181.324219 0 0 181.324219 0 405 C 0 628.675781 181.324219 810 405 810 C 628.675781 810 810 628.675781 810 405 C 810 181.324219 628.675781 0 405 0 Z M 405 0 " clip-rule="nonzero"/></clipPath><clipPath id="1cf65b54e1"><rect x="0" width="810" y="0" height="810"/></clipPath><clipPath id="09fb9c4607"><path d="M 330.320312 84.746094 L 479.667969 84.746094 L 479.667969 234.09375 L 330.320312 234.09375 Z M 330.320312 84.746094 " clip-rule="nonzero"/></clipPath><clipPath id="228f5f059a"><path d="M 404.996094 234.09375 C 446.234375 234.09375 479.667969 200.660156 479.667969 159.417969 C 479.667969 118.175781 446.234375 84.746094 404.996094 84.746094 C 363.753906 84.746094 330.320312 118.175781 330.320312 159.417969 C 330.320312 200.660156 363.753906 234.09375 404.996094 234.09375 Z M 404.996094 234.09375 " clip-rule="nonzero"/></clipPath><clipPath id="9d7ab30b96"><path d="M 0.320312 0.746094 L 149.667969 0.746094 L 149.667969 150.09375 L 0.320312 150.09375 Z M 0.320312 0.746094 " clip-rule="nonzero"/></clipPath><clipPath id="75d8009ef3"><path d="M 74.996094 150.09375 C 116.234375 150.09375 149.667969 116.660156 149.667969 75.417969 C 149.667969 34.175781 116.234375 0.746094 74.996094 0.746094 C 33.753906 0.746094 0.320312 34.175781 0.320312 75.417969 C 0.320312 116.660156 33.753906 150.09375 74.996094 150.09375 Z M 74.996094 150.09375 " clip-rule="nonzero"/></clipPath><clipPath id="eb9e100a9d"><rect x="0" width="150" y="0" height="151"/></clipPath><clipPath id="f319c95f46"><path d="M 330.320312 268.546875 L 479.667969 268.546875 L 479.667969 721.261719 L 330.320312 721.261719 Z M 330.320312 268.546875 " clip-rule="nonzero"/></clipPath><clipPath id="cf10cd6bd5"><path d="M 404.996094 721.261719 C 385.1875 721.261719 366.195312 713.394531 352.191406 699.390625 C 338.1875 685.386719 330.320312 666.390625 330.320312 646.585938 L 330.320312 343.492188 C 330.320312 323.6875 338.1875 304.691406 352.191406 290.6875 C 366.195312 276.683594 385.1875 268.816406 404.996094 268.816406 C 424.800781 268.816406 443.792969 276.683594 457.796875 290.6875 C 471.800781 304.691406 479.667969 323.6875 479.667969 343.492188 L 479.667969 646.585938 C 479.667969 666.390625 471.800781 685.386719 457.796875 699.390625 C 443.792969 713.394531 424.800781 721.261719 404.996094 721.261719 Z M 404.996094 721.261719 " clip-rule="nonzero"/></clipPath><clipPath id="e94d70d9e5"><path d="M 0.320312 0.800781 L 149.667969 0.800781 L 149.667969 453.261719 L 0.320312 453.261719 Z M 0.320312 0.800781 " clip-rule="nonzero"/></clipPath><clipPath id="ba4e4e153a"><path d="M 74.996094 453.261719 C 55.1875 453.261719 36.195312 445.394531 22.191406 431.390625 C 8.1875 417.386719 0.320312 398.390625 0.320312 378.585938 L 0.320312 75.492188 C 0.320312 55.6875 8.1875 36.691406 22.191406 22.6875 C 36.195312 8.683594 55.1875 0.816406 74.996094 0.816406 C 94.800781 0.816406 113.792969 8.683594 127.796875 22.6875 C 141.800781 36.691406 149.667969 55.6875 149.667969 75.492188 L 149.667969 378.585938 C 149.667969 398.390625 141.800781 417.386719 127.796875 431.390625 C 113.792969 445.394531 94.800781 453.261719 74.996094 453.261719 Z M 74.996094 453.261719 " clip-rule="nonzero"/></clipPath><clipPath id="60bd20896c"><rect x="0" width="150" y="0" height="454"/></clipPath></defs><g clip-path="url(#00992b4a38)"><g transform="matrix(1, 0, 0, 1, 0, 0.000000000000039746)"><g clip-path="url(#1cf65b54e1)"><g clip-path="url(#af529eb0ca)"><g clip-path="url(#20b1b7b19d)"><rect x="-178.2" width="1166.4" fill="#ffffff" height="1166.39999" y="-178.199998" fill-opacity="1"/></g></g></g></g><path stroke-linecap="butt" transform="matrix(0.75, 0, 0, 0.75, 0.0000035, 0.00002)" fill="none" stroke-linejoin="miter" d="M 540.000023 -0.0000266667 C 241.765632 -0.0000266667 -0.00000466667 241.76561 -0.00000466667 540.000001 C -0.00000466667 838.234391 241.765632 1080.000028 540.000023 1080.000028 C 838.234413 1080.000028 1080.00005 838.234391 1080.00005 540.000001 C 1080.00005 241.76561 838.234413 -0.0000266667 540.000023 -0.0000266667 Z M 540.000023 -0.0000266667 " stroke="#eb9420" stroke-width="160" stroke-opacity="1" stroke-miterlimit="4"/></g><g clip-path="url(#09fb9c4607)"><g clip-path="url(#228f5f059a)"><g transform="matrix(1, 0, 0, 1, 330, 84)"><g clip-path="url(#eb9e100a9d)"><g clip-path="url(#9d7ab30b96)"><g clip-path="url(#75d8009ef3)"><path fill="#7fbf38" d="M 149.667969 150.09375 L 0.320312 150.09375 L 0.320312 0.746094 L 149.667969 0.746094 Z M 149.667969 150.09375 " fill-opacity="1" fill-rule="nonzero"/></g></g></g></g></g></g><g clip-path="url(#f319c95f46)"><g clip-path="url(#cf10cd6bd5)"><g transform="matrix(1, 0, 0, 1, 330, 268)"><g clip-path="url(#60bd20896c)"><g clip-path="url(#e94d70d9e5)"><g clip-path="url(#ba4e4e153a)"><path fill="#7fbf38" d="M 149.667969 453.261719 L 0.320312 453.261719 L 0.320312 0.546875 L 149.667969 0.546875 Z M 149.667969 453.261719 " fill-opacity="1" fill-rule="nonzero"/></g></g></g></g></g></g></svg>