<svg xmlns="http://www.w3.org/2000/svg" xmlns:xlink="http://www.w3.org/1999/xlink" width="1080" zoomAndPan="magnify" viewBox="0 0 810 809.999993" height="1080" preserveAspectRatio="xMidYMid meet" version="1.0"><defs><clipPath id="6e8ed40e12"><path d="M 405 0 C 181.324219 0 0 181.324219 0 405 C 0 628.675781 181.324219 810 405 810 C 628.675781 810 810 628.675781 810 405 C 810 181.324219 628.675781 0 405 0 Z M 405 0 " clip-rule="nonzero"/></clipPath><clipPath id="7db848aac9"><path d="M 0 0 L 810 0 L 810 810 L 0 810 Z M 0 0 " clip-rule="nonzero"/></clipPath><clipPath id="643ed8402d"><path d="M 405 0 C 181.324219 0 0 181.324219 0 405 C 0 628.675781 181.324219 810 405 810 C 628.675781 810 810 628.675781 810 405 C 810 181.324219 628.675781 0 405 0 Z M 405 0 " clip-rule="nonzero"/></clipPath><clipPath id="87700a6f38"><rect x="0" width="810" y="0" height="810"/></clipPath></defs><g clip-path="url(#6e8ed40e12)"><g transform="matrix(1, 0, 0, 1, 0, 0.000000000000039746)"><g clip-path="url(#87700a6f38)"><g clip-path="url(#7db848aac9)"><g clip-path="url(#643ed8402d)"><rect x="-178.2" width="1166.4" fill="#ffffff" height="1166.39999" y="-178.199998" fill-opacity="1"/></g></g></g></g><path stroke-linecap="butt" transform="matrix(0.75, 0, 0, 0.75, 0.0000035, 0.00002)" fill="none" stroke-linejoin="miter" d="M 540.000023 -0.0000266667 C 241.765632 -0.0000266667 -0.00000466667 241.76561 -0.00000466667 540.000001 C -0.00000466667 838.234391 241.765632 1080.000028 540.000023 1080.000028 C 838.234413 1080.000028 1080.00005 838.234391 1080.00005 540.000001 C 1080.00005 241.76561 838.234413 -0.0000266667 540.000023 -0.0000266667 Z M 540.000023 -0.0000266667 " stroke="#eb9420" stroke-width="160" stroke-opacity="1" stroke-miterlimit="4"/></g><path fill="#7fbf38" d="M 563.761719 560.125 C 561.019531 562.386719 558.21875 564.578125 555.363281 566.695312 C 552.503906 568.8125 549.59375 570.855469 546.632812 572.820312 C 543.667969 574.785156 540.652344 576.671875 537.589844 578.476562 C 534.527344 580.285156 531.421875 582.011719 528.265625 583.652344 C 525.113281 585.296875 521.917969 586.859375 518.683594 588.335938 C 515.449219 589.808594 512.175781 591.199219 508.867188 592.503906 C 505.5625 593.808594 502.21875 595.027344 498.847656 596.15625 C 495.476562 597.285156 492.078125 598.328125 488.652344 599.277344 C 485.222656 600.230469 481.773438 601.089844 478.304688 601.859375 C 474.832031 602.628906 471.34375 603.308594 467.835938 603.894531 C 464.328125 604.484375 460.808594 604.980469 457.273438 605.382812 C 453.742188 605.785156 450.199219 606.09375 446.648438 606.3125 C 443.101562 606.527344 439.546875 606.652344 435.992188 606.683594 C 432.4375 606.710938 428.882812 606.648438 425.328125 606.492188 C 421.777344 606.339844 418.230469 606.089844 414.691406 605.746094 C 411.152344 605.40625 407.621094 604.972656 404.105469 604.445312 C 400.589844 603.917969 397.089844 603.296875 393.605469 602.589844 C 390.121094 601.878906 386.65625 601.078125 383.214844 600.183594 C 379.769531 599.292969 376.355469 598.308594 372.964844 597.238281 C 369.574219 596.167969 366.210938 595.007812 362.882812 593.761719 C 359.550781 592.511719 356.257812 591.179688 352.996094 589.757812 C 349.738281 588.339844 346.515625 586.832031 343.335938 585.242188 C 340.152344 583.65625 337.015625 581.984375 333.921875 580.230469 C 330.828125 578.476562 327.785156 576.640625 324.785156 574.726562 C 321.789062 572.8125 318.84375 570.824219 315.953125 568.753906 C 313.058594 566.6875 310.222656 564.542969 307.441406 562.328125 C 304.660156 560.109375 301.941406 557.824219 299.28125 555.460938 C 296.621094 553.101562 294.023438 550.675781 291.488281 548.179688 C 288.957031 545.683594 286.488281 543.125 284.089844 540.5 C 281.691406 537.875 279.363281 535.1875 277.105469 532.441406 C 274.847656 529.691406 272.664062 526.886719 270.550781 524.027344 C 268.441406 521.164062 266.40625 518.25 264.449219 515.28125 L 435.023438 515.28125 C 436.078125 515.28125 437.128906 515.230469 438.179688 515.125 C 439.226562 515.023438 440.269531 514.867188 441.304688 514.664062 C 442.335938 514.457031 443.359375 514.199219 444.367188 513.894531 C 445.375 513.589844 446.367188 513.234375 447.339844 512.832031 C 448.316406 512.425781 449.265625 511.976562 450.195312 511.480469 C 451.125 510.984375 452.027344 510.441406 452.90625 509.855469 C 453.78125 509.269531 454.628906 508.644531 455.441406 507.976562 C 456.257812 507.304688 457.035156 506.597656 457.78125 505.855469 C 458.527344 505.109375 459.234375 504.328125 459.902344 503.515625 C 460.570312 502.699219 461.199219 501.855469 461.785156 500.976562 C 462.371094 500.101562 462.910156 499.199219 463.410156 498.269531 C 463.90625 497.339844 464.355469 496.386719 464.757812 495.414062 C 465.164062 494.4375 465.515625 493.449219 465.824219 492.4375 C 466.128906 491.429688 466.386719 490.410156 466.589844 489.375 C 466.796875 488.339844 466.949219 487.300781 467.054688 486.25 C 467.15625 485.203125 467.207031 484.152344 467.207031 483.097656 C 467.207031 482.042969 467.15625 480.992188 467.054688 479.941406 C 466.949219 478.894531 466.796875 477.851562 466.589844 476.816406 C 466.386719 475.785156 466.128906 474.761719 465.824219 473.753906 C 465.515625 472.746094 465.164062 471.753906 464.757812 470.78125 C 464.355469 469.804688 463.90625 468.855469 463.410156 467.925781 C 462.910156 466.996094 462.371094 466.09375 461.785156 465.214844 C 461.199219 464.339844 460.570312 463.496094 459.902344 462.679688 C 459.234375 461.863281 458.527344 461.085938 457.78125 460.339844 C 457.035156 459.59375 456.257812 458.886719 455.441406 458.21875 C 454.628906 457.550781 453.78125 456.921875 452.90625 456.335938 C 452.027344 455.75 451.125 455.210938 450.195312 454.714844 C 449.265625 454.214844 448.316406 453.765625 447.339844 453.363281 C 446.367188 452.960938 445.375 452.605469 444.367188 452.296875 C 443.359375 451.992188 442.335938 451.738281 441.304688 451.53125 C 440.269531 451.324219 439.226562 451.171875 438.179688 451.066406 C 437.128906 450.964844 436.078125 450.914062 435.023438 450.914062 L 237.199219 450.914062 C 233.222656 435.140625 231.222656 419.117188 231.191406 402.851562 L 435.023438 402.851562 C 436.078125 402.851562 437.128906 402.800781 438.179688 402.695312 C 439.226562 402.59375 440.269531 402.4375 441.304688 402.234375 C 442.335938 402.027344 443.359375 401.769531 444.367188 401.464844 C 445.375 401.160156 446.367188 400.804688 447.339844 400.402344 C 448.316406 399.996094 449.265625 399.546875 450.195312 399.050781 C 451.125 398.554688 452.027344 398.011719 452.90625 397.425781 C 453.78125 396.839844 454.628906 396.214844 455.441406 395.546875 C 456.257812 394.875 457.035156 394.171875 457.78125 393.425781 C 458.527344 392.679688 459.234375 391.898438 459.902344 391.085938 C 460.570312 390.269531 461.199219 389.425781 461.785156 388.546875 C 462.371094 387.671875 462.910156 386.769531 463.410156 385.839844 C 463.90625 384.910156 464.355469 383.957031 464.757812 382.984375 C 465.164062 382.007812 465.515625 381.019531 465.824219 380.007812 C 466.128906 379 466.386719 377.980469 466.589844 376.945312 C 466.796875 375.910156 466.949219 374.871094 467.054688 373.820312 C 467.15625 372.773438 467.207031 371.722656 467.207031 370.667969 C 467.207031 369.613281 467.15625 368.5625 467.054688 367.511719 C 466.949219 366.464844 466.796875 365.421875 466.589844 364.386719 C 466.386719 363.355469 466.128906 362.332031 465.824219 361.324219 C 465.515625 360.316406 465.164062 359.324219 464.757812 358.351562 C 464.355469 357.375 463.90625 356.425781 463.410156 355.496094 C 462.910156 354.566406 462.371094 353.664062 461.785156 352.785156 C 461.199219 351.910156 460.570312 351.066406 459.902344 350.25 C 459.234375 349.433594 458.527344 348.65625 457.78125 347.910156 C 457.035156 347.164062 456.257812 346.457031 455.441406 345.789062 C 454.628906 345.121094 453.78125 344.492188 452.90625 343.90625 C 452.027344 343.320312 451.125 342.78125 450.195312 342.28125 C 449.265625 341.785156 448.316406 341.335938 447.339844 340.933594 C 446.367188 340.53125 445.375 340.175781 444.367188 339.867188 C 443.359375 339.5625 442.335938 339.308594 441.304688 339.101562 C 440.269531 338.894531 439.226562 338.742188 438.179688 338.636719 C 437.128906 338.535156 436.078125 338.484375 435.023438 338.484375 L 241.921875 338.484375 C 243.078125 335.019531 244.324219 331.589844 245.667969 328.191406 C 247.007812 324.796875 248.4375 321.4375 249.960938 318.117188 C 251.480469 314.796875 253.089844 311.523438 254.789062 308.289062 C 256.484375 305.054688 258.265625 301.871094 260.136719 298.730469 C 262.003906 295.59375 263.953125 292.507812 265.988281 289.476562 C 268.023438 286.441406 270.136719 283.46875 272.328125 280.546875 C 274.523438 277.628906 276.792969 274.769531 279.140625 271.972656 C 281.488281 269.175781 283.90625 266.441406 286.402344 263.773438 C 288.894531 261.105469 291.457031 258.507812 294.089844 255.976562 C 296.726562 253.449219 299.425781 250.992188 302.1875 248.605469 C 304.953125 246.222656 307.78125 243.910156 310.671875 241.679688 C 313.558594 239.445312 316.507812 237.292969 319.511719 235.214844 C 322.515625 233.140625 325.574219 231.148438 328.6875 229.238281 C 331.796875 227.328125 334.960938 225.5 338.167969 223.757812 C 341.378906 222.019531 344.632812 220.363281 347.933594 218.796875 C 351.230469 217.230469 354.570312 215.753906 357.945312 214.367188 C 361.324219 212.980469 364.738281 211.683594 368.183594 210.480469 C 371.632812 209.277344 375.109375 208.167969 378.617188 207.148438 C 382.125 206.132812 385.65625 205.210938 389.210938 204.382812 C 392.769531 203.554688 396.34375 202.824219 399.941406 202.1875 C 403.539062 201.550781 407.148438 201.011719 410.773438 200.570312 C 414.398438 200.128906 418.03125 199.785156 421.675781 199.539062 C 425.316406 199.292969 428.964844 199.140625 432.617188 199.089844 C 436.269531 199.039062 439.917969 199.085938 443.566406 199.234375 C 447.214844 199.378906 450.859375 199.621094 454.492188 199.960938 C 458.128906 200.300781 461.753906 200.738281 465.367188 201.273438 C 468.976562 201.808594 472.574219 202.441406 476.152344 203.171875 C 479.730469 203.898438 483.285156 204.722656 486.820312 205.640625 C 490.355469 206.5625 493.859375 207.574219 497.339844 208.679688 C 500.820312 209.789062 504.269531 210.988281 507.683594 212.28125 C 511.097656 213.574219 514.476562 214.957031 517.816406 216.429688 C 521.160156 217.90625 524.457031 219.46875 527.714844 221.117188 C 528.65625 221.660156 529.625 222.148438 530.621094 222.589844 C 531.613281 223.035156 532.625 223.425781 533.65625 223.761719 C 534.691406 224.101562 535.738281 224.390625 536.800781 224.621094 C 537.859375 224.855469 538.929688 225.035156 540.011719 225.160156 C 541.089844 225.285156 542.175781 225.355469 543.261719 225.371094 C 544.347656 225.382812 545.433594 225.34375 546.515625 225.25 C 547.597656 225.15625 548.671875 225.003906 549.742188 224.800781 C 550.808594 224.597656 551.863281 224.339844 552.90625 224.03125 C 553.945312 223.71875 554.96875 223.355469 555.976562 222.941406 C 556.980469 222.527344 557.960938 222.066406 558.917969 221.550781 C 559.875 221.035156 560.804688 220.476562 561.707031 219.867188 C 562.609375 219.261719 563.476562 218.609375 564.3125 217.914062 C 565.144531 217.214844 565.945312 216.480469 566.703125 215.703125 C 567.464844 214.925781 568.183594 214.113281 568.863281 213.265625 C 569.539062 212.414062 570.171875 211.535156 570.761719 210.621094 C 571.351562 209.707031 571.890625 208.765625 572.386719 207.796875 C 572.878906 206.828125 573.320312 205.835938 573.714844 204.824219 C 574.105469 203.808594 574.449219 202.777344 574.738281 201.730469 C 575.023438 200.683594 575.261719 199.625 575.441406 198.550781 C 575.621094 197.480469 575.75 196.402344 575.820312 195.316406 C 575.890625 194.234375 575.910156 193.148438 575.871094 192.0625 C 575.832031 190.976562 575.738281 189.894531 575.59375 188.816406 C 575.445312 187.738281 575.242188 186.671875 574.988281 185.617188 C 574.730469 184.558594 574.421875 183.519531 574.0625 182.492188 C 573.699219 181.46875 573.289062 180.464844 572.824219 179.480469 C 572.363281 178.496094 571.851562 177.539062 571.292969 176.609375 C 570.730469 175.675781 570.125 174.777344 569.476562 173.90625 C 568.824219 173.035156 568.128906 172.199219 567.394531 171.398438 C 566.660156 170.601562 565.882812 169.839844 565.070312 169.117188 C 564.257812 168.398438 563.410156 167.71875 562.527344 167.082031 C 561.648438 166.445312 560.734375 165.855469 559.792969 165.3125 C 558.851562 164.769531 557.886719 164.277344 556.894531 163.832031 C 552.414062 161.558594 547.875 159.410156 543.277344 157.394531 C 538.675781 155.375 534.023438 153.488281 529.316406 151.730469 C 524.613281 149.972656 519.859375 148.351562 515.0625 146.859375 C 510.265625 145.371094 505.429688 144.015625 500.558594 142.800781 C 495.683594 141.582031 490.78125 140.5 485.847656 139.558594 C 480.914062 138.617188 475.957031 137.8125 470.976562 137.148438 C 466 136.484375 461.003906 135.960938 455.996094 135.578125 C 450.988281 135.191406 445.972656 134.949219 440.949219 134.847656 C 435.929688 134.746094 430.90625 134.785156 425.886719 134.96875 C 420.867188 135.148438 415.855469 135.46875 410.855469 135.929688 C 405.851562 136.390625 400.867188 136.996094 395.898438 137.734375 C 390.933594 138.476562 385.988281 139.359375 381.070312 140.378906 C 376.152344 141.398438 371.265625 142.554688 366.414062 143.851562 C 361.558594 145.144531 356.746094 146.574219 351.972656 148.136719 C 347.199219 149.703125 342.472656 151.402344 337.796875 153.230469 C 333.117188 155.0625 328.496094 157.019531 323.925781 159.109375 C 319.359375 161.203125 314.855469 163.417969 310.410156 165.761719 C 305.96875 168.105469 301.59375 170.570312 297.289062 173.160156 C 292.984375 175.746094 288.757812 178.457031 284.605469 181.28125 C 280.453125 184.109375 276.382812 187.050781 272.394531 190.105469 C 268.40625 193.160156 264.507812 196.324219 260.699219 199.597656 C 256.890625 202.871094 253.175781 206.25 249.554688 209.734375 C 245.9375 213.21875 242.417969 216.800781 239 220.480469 C 235.582031 224.160156 232.269531 227.933594 229.0625 231.800781 C 225.855469 235.667969 222.761719 239.621094 219.777344 243.660156 C 216.792969 247.703125 213.925781 251.824219 211.171875 256.023438 C 208.417969 260.226562 205.785156 264.503906 203.273438 268.851562 C 200.761719 273.203125 198.375 277.617188 196.109375 282.101562 C 193.84375 286.585938 191.707031 291.128906 189.699219 295.734375 C 187.691406 300.339844 185.8125 304.996094 184.066406 309.703125 C 182.316406 314.414062 180.703125 319.167969 179.222656 323.96875 C 177.746094 328.769531 176.398438 333.605469 175.191406 338.484375 L 113.183594 338.484375 C 112.128906 338.484375 111.078125 338.535156 110.03125 338.636719 C 108.980469 338.742188 107.9375 338.894531 106.90625 339.101562 C 105.871094 339.308594 104.851562 339.5625 103.839844 339.867188 C 102.832031 340.175781 101.839844 340.53125 100.867188 340.933594 C 99.894531 341.335938 98.941406 341.785156 98.011719 342.28125 C 97.082031 342.78125 96.179688 343.320312 95.304688 343.90625 C 94.425781 344.492188 93.582031 345.121094 92.765625 345.789062 C 91.953125 346.457031 91.171875 347.164062 90.425781 347.910156 C 89.679688 348.65625 88.972656 349.433594 88.304688 350.25 C 87.636719 351.066406 87.007812 351.910156 86.425781 352.785156 C 85.839844 353.664062 85.296875 354.566406 84.800781 355.496094 C 84.304688 356.425781 83.851562 357.375 83.449219 358.351562 C 83.046875 359.324219 82.691406 360.316406 82.386719 361.324219 C 82.078125 362.332031 81.824219 363.355469 81.617188 364.386719 C 81.414062 365.421875 81.257812 366.464844 81.15625 367.511719 C 81.050781 368.5625 81 369.613281 81 370.667969 C 81 371.722656 81.050781 372.773438 81.15625 373.820312 C 81.257812 374.871094 81.414062 375.910156 81.617188 376.945312 C 81.824219 377.980469 82.078125 379 82.386719 380.007812 C 82.691406 381.019531 83.046875 382.007812 83.449219 382.984375 C 83.851562 383.957031 84.304688 384.910156 84.800781 385.839844 C 85.296875 386.769531 85.839844 387.671875 86.425781 388.546875 C 87.007812 389.425781 87.636719 390.269531 88.304688 391.085938 C 88.972656 391.898438 89.679688 392.679688 90.425781 393.425781 C 91.171875 394.171875 91.953125 394.875 92.765625 395.546875 C 93.582031 396.214844 94.425781 396.839844 95.304688 397.425781 C 96.179688 398.011719 97.082031 398.554688 98.011719 399.050781 C 98.941406 399.546875 99.894531 399.996094 100.867188 400.402344 C 101.839844 400.804688 102.832031 401.160156 103.839844 401.464844 C 104.851562 401.769531 105.871094 402.027344 106.90625 402.234375 C 107.9375 402.4375 108.980469 402.59375 110.03125 402.695312 C 111.078125 402.800781 112.128906 402.851562 113.183594 402.851562 L 166.824219 402.851562 C 166.890625 419.007812 168.394531 435.027344 171.328125 450.914062 L 113.183594 450.914062 C 112.128906 450.914062 111.078125 450.964844 110.03125 451.066406 C 108.980469 451.171875 107.9375 451.324219 106.90625 451.53125 C 105.871094 451.738281 104.851562 451.992188 103.839844 452.296875 C 102.832031 452.605469 101.839844 452.960938 100.867188 453.363281 C 99.894531 453.765625 98.941406 454.214844 98.011719 454.714844 C 97.082031 455.210938 96.179688 455.75 95.304688 456.335938 C 94.425781 456.921875 93.582031 457.550781 92.765625 458.21875 C 91.953125 458.886719 91.171875 459.59375 90.425781 460.339844 C 89.679688 461.085938 88.972656 461.863281 88.304688 462.679688 C 87.636719 463.496094 87.007812 464.339844 86.425781 465.214844 C 85.839844 466.09375 85.296875 466.996094 84.800781 467.925781 C 84.304688 468.855469 83.851562 469.804688 83.449219 470.78125 C 83.046875 471.753906 82.691406 472.746094 82.386719 473.753906 C 82.078125 474.761719 81.824219 475.785156 81.617188 476.816406 C 81.414062 477.851562 81.257812 478.894531 81.15625 479.941406 C 81.050781 480.992188 81 482.042969 81 483.097656 C 81 484.152344 81.050781 485.203125 81.15625 486.25 C 81.257812 487.300781 81.414062 488.339844 81.617188 489.375 C 81.824219 490.410156 82.078125 491.429688 82.386719 492.4375 C 82.691406 493.449219 83.046875 494.4375 83.449219 495.414062 C 83.851562 496.386719 84.304688 497.339844 84.800781 498.269531 C 85.296875 499.199219 85.839844 500.101562 86.425781 500.976562 C 87.007812 501.855469 87.636719 502.699219 88.304688 503.515625 C 88.972656 504.328125 89.679688 505.109375 90.425781 505.855469 C 91.171875 506.597656 91.953125 507.304688 92.765625 507.976562 C 93.582031 508.644531 94.425781 509.269531 95.304688 509.855469 C 96.179688 510.441406 97.082031 510.984375 98.011719 511.480469 C 98.941406 511.976562 99.894531 512.425781 100.867188 512.832031 C 101.839844 513.234375 102.832031 513.589844 103.839844 513.894531 C 104.851562 514.199219 105.871094 514.457031 106.90625 514.664062 C 107.9375 514.867188 108.980469 515.023438 110.03125 515.125 C 111.078125 515.230469 112.128906 515.28125 113.183594 515.28125 L 191.929688 515.28125 C 194.058594 519.9375 196.320312 524.53125 198.714844 529.054688 C 201.113281 533.582031 203.632812 538.039062 206.285156 542.417969 C 208.933594 546.800781 211.707031 551.105469 214.605469 555.328125 C 217.503906 559.550781 220.519531 563.6875 223.652344 567.738281 C 226.789062 571.785156 230.035156 575.742188 233.398438 579.605469 C 236.757812 583.472656 240.226562 587.234375 243.804688 590.898438 C 247.382812 594.5625 251.0625 598.125 254.84375 601.578125 C 258.625 605.03125 262.503906 608.371094 266.476562 611.601562 C 270.449219 614.832031 274.511719 617.949219 278.664062 620.945312 C 282.816406 623.945312 287.050781 626.820312 291.367188 629.574219 C 295.6875 632.328125 300.078125 634.957031 304.546875 637.460938 C 309.015625 639.964844 313.550781 642.335938 318.15625 644.578125 C 322.757812 646.824219 327.421875 648.929688 332.148438 650.90625 C 336.875 652.882812 341.652344 654.71875 346.484375 656.417969 C 351.3125 658.121094 356.1875 659.679688 361.109375 661.101562 C 366.027344 662.523438 370.984375 663.800781 375.980469 664.9375 C 380.972656 666.074219 385.996094 667.066406 391.046875 667.917969 C 396.09375 668.765625 401.167969 669.46875 406.257812 670.027344 C 411.347656 670.582031 416.449219 670.996094 421.566406 671.257812 C 426.679688 671.523438 431.796875 671.640625 436.917969 671.613281 C 442.039062 671.585938 447.15625 671.410156 452.265625 671.085938 C 457.378906 670.765625 462.476562 670.296875 467.558594 669.679688 C 472.644531 669.066406 477.707031 668.304688 482.746094 667.398438 C 487.789062 666.496094 492.796875 665.445312 497.777344 664.253906 C 502.757812 663.058594 507.699219 661.726562 512.605469 660.25 C 517.507812 658.773438 522.367188 657.15625 527.175781 655.402344 C 531.988281 653.648438 536.746094 651.753906 541.449219 649.726562 C 546.148438 647.699219 550.789062 645.539062 555.371094 643.242188 C 559.949219 640.949219 564.457031 638.527344 568.898438 635.972656 C 573.335938 633.421875 577.699219 630.742188 581.984375 627.9375 C 586.269531 625.136719 590.472656 622.210938 594.589844 619.167969 C 598.710938 616.121094 602.738281 612.960938 606.671875 609.6875 C 607.484375 608.984375 608.261719 608.246094 609 607.464844 C 609.742188 606.6875 610.441406 605.875 611.101562 605.027344 C 611.761719 604.179688 612.378906 603.300781 612.953125 602.394531 C 613.523438 601.484375 614.050781 600.550781 614.535156 599.589844 C 615.015625 598.628906 615.449219 597.648438 615.835938 596.648438 C 616.21875 595.644531 616.554688 594.625 616.839844 593.589844 C 617.125 592.554688 617.359375 591.507812 617.542969 590.449219 C 617.722656 589.390625 617.851562 588.324219 617.929688 587.253906 C 618.007812 586.183594 618.03125 585.109375 618.003906 584.035156 C 617.976562 582.960938 617.894531 581.890625 617.761719 580.828125 C 617.628906 579.761719 617.445312 578.703125 617.207031 577.65625 C 616.972656 576.609375 616.683594 575.574219 616.34375 574.554688 C 616.007812 573.535156 615.617188 572.535156 615.179688 571.554688 C 614.746094 570.574219 614.261719 569.617188 613.730469 568.683594 C 613.199219 567.75 612.621094 566.84375 612.003906 565.964844 C 611.382812 565.089844 610.722656 564.246094 610.019531 563.433594 C 609.316406 562.621094 608.574219 561.84375 607.792969 561.105469 C 607.015625 560.367188 606.203125 559.667969 605.355469 559.007812 C 604.503906 558.347656 603.628906 557.734375 602.71875 557.160156 C 601.808594 556.585938 600.875 556.0625 599.914062 555.578125 C 598.953125 555.097656 597.972656 554.667969 596.96875 554.28125 C 595.96875 553.898438 594.949219 553.5625 593.910156 553.277344 C 592.875 552.996094 591.828125 552.761719 590.769531 552.578125 C 589.710938 552.398438 588.648438 552.269531 587.574219 552.191406 C 586.503906 552.117188 585.429688 552.09375 584.359375 552.121094 C 583.285156 552.148438 582.214844 552.230469 581.148438 552.367188 C 580.082031 552.5 579.027344 552.683594 577.980469 552.921875 C 576.929688 553.160156 575.898438 553.449219 574.878906 553.789062 C 573.859375 554.128906 572.859375 554.515625 571.878906 554.953125 C 570.898438 555.390625 569.941406 555.875 569.007812 556.410156 C 568.074219 556.941406 567.167969 557.515625 566.292969 558.136719 C 565.417969 558.757812 564.574219 559.421875 563.761719 560.125 Z M 563.761719 560.125 " fill-opacity="1" fill-rule="nonzero"/></svg>