<svg xmlns="http://www.w3.org/2000/svg" xmlns:xlink="http://www.w3.org/1999/xlink" width="1080" zoomAndPan="magnify" viewBox="0 0 810 809.999993" height="1080" preserveAspectRatio="xMidYMid meet" version="1.0"><defs><clipPath id="87f1ce8f0d"><path d="M 405 0 C 181.324219 0 0 181.324219 0 405 C 0 628.675781 181.324219 810 405 810 C 628.675781 810 810 628.675781 810 405 C 810 181.324219 628.675781 0 405 0 Z M 405 0 " clip-rule="nonzero"/></clipPath><clipPath id="f634f9b9e7"><path d="M 0 0 L 810 0 L 810 810 L 0 810 Z M 0 0 " clip-rule="nonzero"/></clipPath><clipPath id="c0048534c7"><path d="M 405 0 C 181.324219 0 0 181.324219 0 405 C 0 628.675781 181.324219 810 405 810 C 628.675781 810 810 628.675781 810 405 C 810 181.324219 628.675781 0 405 0 Z M 405 0 " clip-rule="nonzero"/></clipPath><clipPath id="9005544d3a"><rect x="0" width="810" y="0" height="810"/></clipPath></defs><g clip-path="url(#87f1ce8f0d)"><g transform="matrix(1, 0, 0, 1, 0, 0.000000000000039746)"><g clip-path="url(#9005544d3a)"><g clip-path="url(#f634f9b9e7)"><g clip-path="url(#c0048534c7)"><rect x="-178.2" width="1166.4" fill="#ffffff" height="1166.39999" y="-178.199998" fill-opacity="1"/></g></g></g></g><path stroke-linecap="butt" transform="matrix(0.75, 0, 0, 0.75, 0.0000035, 0.00002)" fill="none" stroke-linejoin="miter" d="M 540.000023 -0.0000266667 C 241.765632 -0.0000266667 -0.00000466667 241.76561 -0.00000466667 540 C -0.00000466667 838.234391 241.765632 1080.000028 540.000023 1080.000028 C 838.234413 1080.000028 1080.00005 838.234391 1080.00005 540 C 1080.00005 241.76561 838.234413 -0.0000266667 540.000023 -0.0000266667 Z M 540.000023 -0.0000266667 " stroke="#eb9420" stroke-width="160" stroke-opacity="1" stroke-miterlimit="4"/></g><path stroke-linecap="round" transform="matrix(0.536013, -0.524586, 0.524586, 0.536013, 311.197987, 534.800033)" fill="none" stroke-linejoin="miter" d="M 39.99855 39.999891 L 536.615211 39.99713 " stroke="#7fbf38" stroke-width="80" stroke-opacity="1" stroke-miterlimit="4"/><path stroke-linecap="round" transform="matrix(0.558315, 0.500783, -0.500783, 0.558315, 187.823168, 348.349193)" fill="none" stroke-linejoin="miter" d="M 40.002051 40.001215 L 326.135106 39.998446 " stroke="#7fbf38" stroke-width="80" stroke-opacity="1" stroke-miterlimit="4"/></svg>