<svg xmlns="http://www.w3.org/2000/svg" xmlns:xlink="http://www.w3.org/1999/xlink" width="1080" zoomAndPan="magnify" viewBox="0 0 810 809.999993" height="1080" preserveAspectRatio="xMidYMid meet" version="1.0"><defs><clipPath id="34b509901e"><path d="M 405 0 C 181.324219 0 0 181.324219 0 405 C 0 628.675781 181.324219 810 405 810 C 628.675781 810 810 628.675781 810 405 C 810 181.324219 628.675781 0 405 0 Z M 405 0 " clip-rule="nonzero"/></clipPath><clipPath id="4d7923870d"><path d="M 0 0 L 810 0 L 810 810 L 0 810 Z M 0 0 " clip-rule="nonzero"/></clipPath><clipPath id="efd820ced0"><path d="M 405 0 C 181.324219 0 0 181.324219 0 405 C 0 628.675781 181.324219 810 405 810 C 628.675781 810 810 628.675781 810 405 C 810 181.324219 628.675781 0 405 0 Z M 405 0 " clip-rule="nonzero"/></clipPath><clipPath id="84f4deb1c7"><rect x="0" width="810" y="0" height="810"/></clipPath><clipPath id="1cceb3a59a"><path d="M 232 160.765625 L 710.207031 160.765625 L 710.207031 507 L 232 507 Z M 232 160.765625 " clip-rule="nonzero"/></clipPath><clipPath id="990f673f5b"><path d="M 99.707031 303 L 578 303 L 578 649.015625 L 99.707031 649.015625 Z M 99.707031 303 " clip-rule="nonzero"/></clipPath></defs><g clip-path="url(#34b509901e)"><g transform="matrix(1, 0, 0, 1, 0, 0.000000000000039746)"><g clip-path="url(#84f4deb1c7)"><g clip-path="url(#4d7923870d)"><g clip-path="url(#efd820ced0)"><rect x="-178.2" width="1166.4" fill="#ffffff" height="1166.39999" y="-178.199998" fill-opacity="1"/></g></g></g></g><path stroke-linecap="butt" transform="matrix(0.75, 0, 0, 0.75, 0.0000035, 0.00002)" fill="none" stroke-linejoin="miter" d="M 540.000023 -0.0000266667 C 241.765632 -0.0000266667 -0.00000466667 241.76561 -0.00000466667 540.000001 C -0.00000466667 838.234391 241.765632 1080.000028 540.000023 1080.000028 C 838.234413 1080.000028 1080.00005 838.234391 1080.00005 540.000001 C 1080.00005 241.76561 838.234413 -0.0000266667 540.000023 -0.0000266667 Z M 540.000023 -0.0000266667 " stroke="#eb9420" stroke-width="160" stroke-opacity="1" stroke-miterlimit="4"/></g><g clip-path="url(#1cceb3a59a)"><path fill="#7fbf38" d="M 649.230469 404.996094 C 649.230469 270.328125 539.667969 160.761719 405.003906 160.761719 C 339.757812 160.761719 278.425781 186.175781 232.304688 232.304688 L 289.863281 289.871094 C 320.617188 259.113281 361.507812 242.175781 405.003906 242.175781 C 494.78125 242.175781 567.820312 315.21875 567.820312 404.996094 L 506.761719 404.996094 L 608.523438 506.761719 L 710.289062 404.996094 Z M 649.230469 404.996094 " fill-opacity="1" fill-rule="nonzero"/></g><g clip-path="url(#990f673f5b)"><path fill="#7fbf38" d="M 405.003906 567.820312 C 315.21875 567.820312 242.179688 494.777344 242.179688 404.996094 L 303.238281 404.996094 L 201.476562 303.234375 L 99.710938 404.996094 L 160.769531 404.996094 C 160.769531 539.664062 270.328125 649.230469 405.003906 649.230469 C 470.246094 649.230469 531.574219 623.820312 577.695312 577.6875 L 520.132812 520.125 C 489.382812 550.878906 448.488281 567.820312 405.003906 567.820312 Z M 405.003906 567.820312 " fill-opacity="1" fill-rule="nonzero"/></g></svg>