<svg xmlns="http://www.w3.org/2000/svg" xmlns:xlink="http://www.w3.org/1999/xlink" width="1080" zoomAndPan="magnify" viewBox="0 0 810 809.999993" height="1080" preserveAspectRatio="xMidYMid meet" version="1.0"><defs><clipPath id="aa9f111c4f"><path d="M 405 0 C 181.324219 0 0 181.324219 0 405 C 0 628.675781 181.324219 810 405 810 C 628.675781 810 810 628.675781 810 405 C 810 181.324219 628.675781 0 405 0 Z M 405 0 " clip-rule="nonzero"/></clipPath><clipPath id="0f4b10f803"><path d="M 0 0 L 810 0 L 810 810 L 0 810 Z M 0 0 " clip-rule="nonzero"/></clipPath><clipPath id="a86dca9a89"><path d="M 405 0 C 181.324219 0 0 181.324219 0 405 C 0 628.675781 181.324219 810 405 810 C 628.675781 810 810 628.675781 810 405 C 810 181.324219 628.675781 0 405 0 Z M 405 0 " clip-rule="nonzero"/></clipPath><clipPath id="5d98cf8302"><rect x="0" width="810" y="0" height="810"/></clipPath><clipPath id="38a4955c36"><path d="M 296.101562 125.703125 L 513.671875 125.703125 L 513.671875 343.277344 L 296.101562 343.277344 Z M 296.101562 125.703125 " clip-rule="nonzero"/></clipPath><clipPath id="90f7b5f016"><path d="M 404.886719 343.277344 C 464.96875 343.277344 513.671875 294.570312 513.671875 234.492188 C 513.671875 174.410156 464.96875 125.703125 404.886719 125.703125 C 344.804688 125.703125 296.101562 174.410156 296.101562 234.492188 C 296.101562 294.570312 344.804688 343.277344 404.886719 343.277344 Z M 404.886719 343.277344 " clip-rule="nonzero"/></clipPath><clipPath id="65def2cc6d"><path d="M 0.101562 0.703125 L 217.671875 0.703125 L 217.671875 218.277344 L 0.101562 218.277344 Z M 0.101562 0.703125 " clip-rule="nonzero"/></clipPath><clipPath id="96c6dd34a1"><path d="M 108.886719 218.277344 C 168.96875 218.277344 217.671875 169.570312 217.671875 109.492188 C 217.671875 49.410156 168.96875 0.703125 108.886719 0.703125 C 48.804688 0.703125 0.101562 49.410156 0.101562 109.492188 C 0.101562 169.570312 48.804688 218.277344 108.886719 218.277344 Z M 108.886719 218.277344 " clip-rule="nonzero"/></clipPath><clipPath id="84569abaa9"><rect x="0" width="218" y="0" height="219"/></clipPath><clipPath id="a6efe8784d"><path d="M 256.101562 391 L 553.652344 391 L 553.652344 753.441406 L 256.101562 753.441406 Z M 256.101562 391 " clip-rule="nonzero"/></clipPath><clipPath id="6187fc8fc8"><path d="M 478.652344 753.441406 L 331.101562 753.441406 C 289.683594 753.441406 256.101562 719.863281 256.101562 678.441406 L 256.101562 466.171875 C 256.101562 424.75 289.683594 391.171875 331.101562 391.171875 L 478.652344 391.171875 C 520.074219 391.171875 553.652344 424.75 553.652344 466.171875 L 553.652344 678.441406 C 553.652344 719.863281 520.074219 753.441406 478.652344 753.441406 Z M 478.652344 753.441406 " clip-rule="nonzero"/></clipPath><clipPath id="93b5cb9eed"><path d="M 0.101562 0 L 297.652344 0 L 297.652344 362.441406 L 0.101562 362.441406 Z M 0.101562 0 " clip-rule="nonzero"/></clipPath><clipPath id="c3e30a41d8"><path d="M 222.652344 362.441406 L 75.101562 362.441406 C 33.683594 362.441406 0.101562 328.863281 0.101562 287.441406 L 0.101562 75.171875 C 0.101562 33.75 33.683594 0.171875 75.101562 0.171875 L 222.652344 0.171875 C 264.074219 0.171875 297.652344 33.75 297.652344 75.171875 L 297.652344 287.441406 C 297.652344 328.863281 264.074219 362.441406 222.652344 362.441406 Z M 222.652344 362.441406 " clip-rule="nonzero"/></clipPath><clipPath id="25bf604652"><rect x="0" width="298" y="0" height="363"/></clipPath><clipPath id="df21133e85"><path d="M 195.441406 391 L 446 391 L 446 754 L 195.441406 754 Z M 195.441406 391 " clip-rule="nonzero"/></clipPath><clipPath id="3c43e7e2ce"><path d="M 379.277344 753.441406 L 261.441406 753.441406 C 243.9375 753.441406 227.152344 746.488281 214.773438 734.109375 C 202.394531 721.734375 195.441406 704.945312 195.441406 687.441406 L 195.441406 457.171875 C 195.441406 439.667969 202.394531 422.882812 214.773438 410.503906 C 227.152344 398.125 243.9375 391.171875 261.441406 391.171875 L 379.277344 391.171875 C 396.78125 391.171875 413.566406 398.125 425.945312 410.503906 C 438.320312 422.882812 445.277344 439.667969 445.277344 457.171875 L 445.277344 687.441406 C 445.277344 704.945312 438.320312 721.734375 425.945312 734.109375 C 413.566406 746.488281 396.78125 753.441406 379.277344 753.441406 Z M 379.277344 753.441406 " clip-rule="nonzero"/></clipPath><clipPath id="657aed0c85"><path d="M 0.441406 0 L 250.441406 0 L 250.441406 362.601562 L 0.441406 362.601562 Z M 0.441406 0 " clip-rule="nonzero"/></clipPath><clipPath id="cedf527e03"><path d="M 184.277344 362.441406 L 66.441406 362.441406 C 48.9375 362.441406 32.152344 355.488281 19.773438 343.109375 C 7.394531 330.734375 0.441406 313.945312 0.441406 296.441406 L 0.441406 66.171875 C 0.441406 48.667969 7.394531 31.882812 19.773438 19.503906 C 32.152344 7.125 48.9375 0.171875 66.441406 0.171875 L 184.277344 0.171875 C 201.78125 0.171875 218.566406 7.125 230.945312 19.503906 C 243.320312 31.882812 250.277344 48.667969 250.277344 66.171875 L 250.277344 296.441406 C 250.277344 313.945312 243.320312 330.734375 230.945312 343.109375 C 218.566406 355.488281 201.78125 362.441406 184.277344 362.441406 Z M 184.277344 362.441406 " clip-rule="nonzero"/></clipPath><clipPath id="5c31c8a460"><rect x="0" width="251" y="0" height="363"/></clipPath><clipPath id="04909c238d"><path d="M 364.722656 391 L 615 391 L 615 754 L 364.722656 754 Z M 364.722656 391 " clip-rule="nonzero"/></clipPath><clipPath id="638da17503"><path d="M 548.554688 753.441406 L 430.722656 753.441406 C 413.21875 753.441406 396.429688 746.488281 384.054688 734.109375 C 371.675781 721.734375 364.722656 704.945312 364.722656 687.441406 L 364.722656 457.171875 C 364.722656 439.667969 371.675781 422.882812 384.054688 410.503906 C 396.429688 398.125 413.21875 391.171875 430.722656 391.171875 L 548.554688 391.171875 C 566.058594 391.171875 582.847656 398.125 595.222656 410.503906 C 607.601562 422.882812 614.554688 439.667969 614.554688 457.171875 L 614.554688 687.441406 C 614.554688 704.945312 607.601562 721.734375 595.222656 734.109375 C 582.847656 746.488281 566.058594 753.441406 548.554688 753.441406 Z M 548.554688 753.441406 " clip-rule="nonzero"/></clipPath><clipPath id="26dc298d82"><path d="M 0.722656 0 L 250.640625 0 L 250.640625 362.601562 L 0.722656 362.601562 Z M 0.722656 0 " clip-rule="nonzero"/></clipPath><clipPath id="19d13c72b8"><path d="M 184.554688 362.441406 L 66.722656 362.441406 C 49.21875 362.441406 32.429688 355.488281 20.054688 343.109375 C 7.675781 330.734375 0.722656 313.945312 0.722656 296.441406 L 0.722656 66.171875 C 0.722656 48.667969 7.675781 31.882812 20.054688 19.503906 C 32.429688 7.125 49.21875 0.171875 66.722656 0.171875 L 184.554688 0.171875 C 202.058594 0.171875 218.847656 7.125 231.222656 19.503906 C 243.601562 31.882812 250.554688 48.667969 250.554688 66.171875 L 250.554688 296.441406 C 250.554688 313.945312 243.601562 330.734375 231.222656 343.109375 C 218.847656 355.488281 202.058594 362.441406 184.554688 362.441406 Z M 184.554688 362.441406 " clip-rule="nonzero"/></clipPath><clipPath id="1568b32488"><rect x="0" width="251" y="0" height="363"/></clipPath><clipPath id="e724287021"><path d="M 405 0 C 181.324219 0 0 181.324219 0 405 C 0 628.675781 181.324219 810 405 810 C 628.675781 810 810 628.675781 810 405 C 810 181.324219 628.675781 0 405 0 Z M 405 0 " clip-rule="nonzero"/></clipPath></defs><g clip-path="url(#aa9f111c4f)"><g transform="matrix(1, 0, 0, 1, 0, 0.000000000000039746)"><g clip-path="url(#5d98cf8302)"><g clip-path="url(#0f4b10f803)"><g clip-path="url(#a86dca9a89)"><rect x="-178.2" width="1166.4" fill="#ffffff" height="1166.39999" y="-178.199998" fill-opacity="1"/></g></g></g></g><path stroke-linecap="butt" transform="matrix(0.75, 0, 0, 0.75, 0.0000035, 0.00002)" fill="none" stroke-linejoin="miter" d="M 540.000023 -0.0000266667 C 241.765632 -0.0000266667 -0.00000466667 241.76561 -0.00000466667 540.000001 C -0.00000466667 838.234391 241.765632 1080.000028 540.000023 1080.000028 C 838.234413 1080.000028 1080.00005 838.234391 1080.00005 540.000001 C 1080.00005 241.76561 838.234413 -0.0000266667 540.000023 -0.0000266667 Z M 540.000023 -0.0000266667 " stroke="#eb9420" stroke-width="160" stroke-opacity="1" stroke-miterlimit="4"/></g><g clip-path="url(#38a4955c36)"><g clip-path="url(#90f7b5f016)"><g transform="matrix(1, 0, 0, 1, 296, 125)"><g clip-path="url(#84569abaa9)"><g clip-path="url(#65def2cc6d)"><g clip-path="url(#96c6dd34a1)"><path fill="#7fbf38" d="M 217.671875 218.277344 L 0.101562 218.277344 L 0.101562 0.703125 L 217.671875 0.703125 Z M 217.671875 218.277344 " fill-opacity="1" fill-rule="nonzero"/></g></g></g></g></g></g><g clip-path="url(#a6efe8784d)"><g clip-path="url(#6187fc8fc8)"><g transform="matrix(1, 0, 0, 1, 256, 391)"><g clip-path="url(#25bf604652)"><g clip-path="url(#93b5cb9eed)"><g clip-path="url(#c3e30a41d8)"><path fill="#7fbf38" d="M 297.652344 362.441406 L 0.101562 362.441406 L 0.101562 -0.199219 L 297.652344 -0.199219 Z M 297.652344 362.441406 " fill-opacity="1" fill-rule="nonzero"/></g></g></g></g></g></g><g clip-path="url(#df21133e85)"><g clip-path="url(#3c43e7e2ce)"><g transform="matrix(1, 0, 0, 1, 195, 391)"><g clip-path="url(#5c31c8a460)"><g clip-path="url(#657aed0c85)"><g clip-path="url(#cedf527e03)"><path fill="#7fbf38" d="M 250.277344 362.441406 L 0.441406 362.441406 L 0.441406 0.378906 L 250.277344 0.378906 Z M 250.277344 362.441406 " fill-opacity="1" fill-rule="nonzero"/></g></g></g></g></g></g><g clip-path="url(#04909c238d)"><g clip-path="url(#638da17503)"><g transform="matrix(1, 0, 0, 1, 364, 391)"><g clip-path="url(#1568b32488)"><g clip-path="url(#26dc298d82)"><g clip-path="url(#19d13c72b8)"><path fill="#7fbf38" d="M 250.554688 362.441406 L 0.722656 362.441406 L 0.722656 0.378906 L 250.554688 0.378906 Z M 250.554688 362.441406 " fill-opacity="1" fill-rule="nonzero"/></g></g></g></g></g></g><path stroke-linecap="round" transform="matrix(0, -0.75, 0.75, 0, 251.675556, 753.44343)" fill="none" stroke-linejoin="miter" d="M 2.99749 3.0003 L 384.435009 3.0003 " stroke="#ffffff" stroke-width="6" stroke-opacity="1" stroke-miterlimit="4"/><path stroke-linecap="round" transform="matrix(0, -0.75, 0.75, 0, 553.5966, 753.44343)" fill="none" stroke-linejoin="miter" d="M 2.99749 3.001409 L 384.435009 3.001409 " stroke="#ffffff" stroke-width="6" stroke-opacity="1" stroke-miterlimit="4"/><g clip-path="url(#e724287021)"><path stroke-linecap="butt" transform="matrix(0.75, 0, 0, 0.75, 0.0000035, 0.00002)" fill="none" stroke-linejoin="miter" d="M 540.000023 -0.0000266667 C 241.765632 -0.0000266667 -0.00000466667 241.76561 -0.00000466667 540.000001 C -0.00000466667 838.234391 241.765632 1080.000028 540.000023 1080.000028 C 838.234413 1080.000028 1080.00005 838.234391 1080.00005 540.000001 C 1080.00005 241.76561 838.234413 -0.0000266667 540.000023 -0.0000266667 Z M 540.000023 -0.0000266667 " stroke="#eb9420" stroke-width="160" stroke-opacity="1" stroke-miterlimit="4"/></g></svg>